<?xml version="1.0" encoding="UTF-8"?>
<!DOCTYPE svg PUBLIC "-//W3C//DTD SVG 1.1//EN" "http://www.w3.org/Graphics/SVG/1.1/DTD/svg11.dtd">
<!-- Creator: CorelDRAW 2019 (64-Bit) -->
<svg xmlns="http://www.w3.org/2000/svg" xml:space="preserve" width="12.9921in" height="19.0157in" version="1.1" style="shape-rendering:geometricPrecision; text-rendering:geometricPrecision; image-rendering:optimizeQuality; fill-rule:evenodd; clip-rule:evenodd"
viewBox="0 0 12992.13 19015.75"
 xmlns:xlink="http://www.w3.org/1999/xlink">
 <defs>
  <style type="text/css">
   <![CDATA[
    .fil13 {fill:black}
    .fil14 {fill:#0006AC}
    .fil29 {fill:#004ED1}
    .fil15 {fill:#005400}
    .fil21 {fill:#00AAFF}
    .fil19 {fill:#00AE00}
    .fil3 {fill:aqua}
    .fil31 {fill:#27AFFF}
    .fil11 {fill:#4E0065}
    .fil7 {fill:#5A0000}
    .fil25 {fill:#696775}
    .fil27 {fill:#69F8FE}
    .fil24 {fill:#7D0400}
    .fil33 {fill:#ACF414}
    .fil12 {fill:#B10000}
    .fil30 {fill:#CFCFD1}
    .fil17 {fill:#E86F00}
    .fil0 {fill:#EB7CD4}
    .fil10 {fill:#FE8E17}
    .fil20 {fill:#FEFE00}
    .fil2 {fill:#FEFE02}
    .fil23 {fill:red}
    .fil1 {fill:#FF000E}
    .fil26 {fill:#FF98B0}
    .fil4 {fill:#FFAC33}
    .fil9 {fill:#FFB058}
    .fil8 {fill:#FFB331}
    .fil6 {fill:#FFB503}
    .fil18 {fill:#FFCF79}
    .fil16 {fill:#FFEC7D}
    .fil22 {fill:#FFF4D7}
    .fil5 {fill:#FFFF3B}
    .fil28 {fill:#FFFF8A}
    .fil32 {fill:white}
   ]]>
  </style>
 </defs>
 <g id="Layer_x0020_1">
  <metadata id="CorelCorpID_0Corel-Layer"/>
  <path class="fil0" d="M2725.58 4528.52c17.48,26.3 48.27,30.55 56.44,76.13 18.66,103.89 173.22,55.71 179.81,573.34 7.59,595.6 -224.59,1065.31 -762.43,1295l-313.63 119.56c-17.93,7.44 -51.67,21.41 -76.12,34.83 -29.02,746.82 62.68,661.24 316.41,1188.36l1557.87 -997.3c352.09,-430.85 588.78,-1067.3 933.83,-1559.39 868.87,89.07 864.8,297.61 1195.88,396.63l154.53 33.65c216.42,11.66 335.69,-65.55 290.61,-283.81 -51.23,-248.11 -364.24,-466.76 -554.71,-573.46l-450.09 -253.88c-830.29,-500.23 -1639.79,-187.83 -2528.4,-49.65z"/>
  <path class="fil1" d="M4737.41 4131.85c265.59,122.75 465.73,172.98 729.54,297.93 215.33,102.02 515.2,331.2 655.58,382.96 577,212.76 1425.28,-32.8 2059.86,111.27 470.47,1132.03 1.23,1117.54 465.11,1557.26 385.62,-77.7 401.35,-286.16 422.26,-778.83 46.16,-1086.52 -369.04,-2321.62 -1279.91,-2680.59 -264.22,425.69 -880.12,946.81 -1632.76,522.41 -12.92,-7.29 -891.92,-957.09 -1419.69,587.6z"/>
  <path class="fil2" d="M10625.39 11732.79c-369.43,-1542.43 -220.7,-1289.72 968.39,-2055.82 28.85,-541.85 -218.76,-811.99 -407.59,-1154.23 -178.23,139.33 -449.89,343.89 -682.33,478.18 -388.79,224.59 -457.38,120.64 -745.74,491.68 -296.5,381.58 -709.68,1007.02 -858.3,1498.56 -827.42,45.52 -1297.46,-480.99 -1696.06,-234.4 -313.78,350.42 819.67,966.4 1274.38,1104.41 849.86,257.92 1456.88,114.64 2147.23,-128.38z"/>
  <path class="fil3" d="M7820.87 13099.81c320.4,-181.8 673.22,-461.19 795.85,-865.68 -293.16,-191.64 -469.16,-182.09 -785.01,-349.24 -282.44,-149.44 -404.63,-326.55 -651.54,-400.94 -521.41,-157.05 -1476.36,157.55 -1876.07,-132.71 -241.52,-171.37 -36.7,230.21 -240.32,-318.06 -163.26,-439.54 45.52,-784.37 -342.69,-1181.8 -848.43,330.47 -317.15,2862.74 826.61,3409.84 1362.74,-1254.81 1431.57,-449.89 2273.17,-161.41z"/>
  <path class="fil4" d="M10507.38 8504.05c-359.44,-178.17 -201.8,3.05 -304.43,-352 297.67,-216.89 546.16,-253.79 365.8,208.07l-61.36 143.93zm-1314.33 589.89c285.1,116.98 600.14,29.08 869.78,-113.94 893.35,-473.9 1568.36,-1250.48 1663.2,-2352.64 -445.35,-270.37 -720.78,-43.46 -1066.4,-566.13 -323.24,-488.87 -210.68,-723.65 -201.83,-1347.48 -509.69,-221.78 -527.8,-319.28 -1253.5,-216.07 199.84,513.2 136.28,784.43 128.64,1343.62 -6.47,471.85 274.97,751.21 513.09,1147.06 1017.48,1691.57 -715.98,1130.24 -652.98,2105.58z"/>
  <path class="fil5" d="M2498.09 9757.54c188.22,-368.43 73.55,-420.42 379.3,-360.14 148.82,386 22.64,262.81 -16.17,729.48l-363.13 -369.34zm-527.09 -198.67c10.08,-262.4 -17.89,-205.46 69.97,-471.09 9.76,-29.52 58.67,-145.16 89.28,-203.33 10.75,-20.39 27.71,-45.6 39.22,-65.81 11.66,-20.44 29.67,-45.02 41.8,-65.41 305.05,-514.14 230.33,-585.78 713.46,-879.26 23.9,-14.53 62.68,-33.07 93.84,-49.88 -222.36,730.71 -402.2,-53.04 -159.22,757.39 -248.37,-269.67 -21.59,-255.28 -232.97,-114.96 -299.51,198.87 47.8,350.3 -400.88,840.52l-254.5 251.83zm-282.23 100.81c1032.28,466.31 1262.81,297.4 1283.9,1623.13 4.13,260.65 -24.66,-71.96 10.28,192.84 3.66,27.77 19.45,63.2 23.61,84.97 4.13,21.56 19.57,54.86 30.72,81.78l1039.51 240.32c160.74,-2562.82 -844.18,-2365.38 -894.52,-3509.33 460.6,-387.65 1001.31,-710 1081.77,-1002.2 -490.83,-477.12 -1442.24,264.66 -1780.85,638.98l-794.42 1649.52z"/>
  <path class="fil1" d="M6726.37 1677.53c510.11,0 923.63,413.52 923.63,923.63 0,510.11 -413.52,923.63 -923.63,923.63 -510.11,0 -923.63,-413.52 -923.63,-923.63 0,-510.11 413.52,-923.63 923.63,-923.63z"/>
  <path class="fil3" d="M6743.72 12910.8c510.11,0 923.63,413.52 923.63,923.63 0,510.11 -413.52,923.63 -923.63,923.63 -510.11,0 -923.63,-413.52 -923.63,-923.63 0,-510.11 413.52,-923.63 923.63,-923.63z"/>
  <path class="fil0" d="M1749.44 4287.19c510.11,0 923.63,413.52 923.63,923.63 0,510.11 -413.52,923.63 -923.63,923.63 -510.11,0 -923.63,-413.52 -923.63,-923.63 0,-510.11 413.52,-923.63 923.63,-923.63z"/>
  <path class="fil2" d="M11611.8 10044.22c510.11,0 923.63,413.52 923.63,923.63 0,510.11 -413.52,923.63 -923.63,923.63 -510.11,0 -923.63,-413.52 -923.63,-923.63 0,-510.11 413.52,-923.63 923.63,-923.63z"/>
  <path class="fil2" d="M1843.33 10058.35c510.11,0 923.63,413.52 923.63,923.63 0,510.11 -413.52,923.63 -923.63,923.63 -510.11,0 -923.63,-413.52 -923.63,-923.63 0,-510.11 413.52,-923.63 923.63,-923.63z"/>
  <path class="fil4" d="M11596.63 4415.66c510.11,0 923.63,413.52 923.63,923.63 0,510.11 -413.52,923.63 -923.63,923.63 -510.11,0 -923.63,-413.52 -923.63,-923.63 0,-510.11 413.52,-923.63 923.63,-923.63z"/>
  <path class="fil2" d="M2225.49 9307.04c448.69,-490.21 101.37,-641.64 400.88,-840.52 211.38,-140.32 -15.41,-154.7 232.97,114.96 -242.98,-810.44 -63.15,-26.68 159.22,-757.39 -31.16,16.81 -69.94,35.35 -93.84,49.88 -483.13,293.48 -408.41,365.12 -713.46,879.26 -12.13,20.39 -30.14,44.96 -41.8,65.41 -11.51,20.21 -28.47,45.43 -39.22,65.81 -30.61,58.17 -79.52,173.8 -89.28,203.33 -87.87,265.63 -59.89,208.69 -69.97,471.09l254.5 -251.83z"/>
  <path class="fil2" d="M2861.22 10126.88c38.81,-466.67 164.99,-343.48 16.17,-729.48 -305.75,-60.28 -191.08,-8.29 -379.3,360.14l363.13 369.34z"/>
  <path class="fil6" d="M10568.74 8360.12c180.36,-461.87 -68.13,-424.96 -365.8,-208.07 102.63,355.05 -55.01,173.83 304.43,352l61.36 -143.93z"/>
  <g id="_2208596043248">
   <path class="fil7" d="M7147.48 8751.78c33.26,11.57 210.35,154.6 258.84,192.13 60.99,47.2 159.87,107.95 238.78,173.54 43.77,36.39 174.32,117.14 194.62,145.1 -22.19,22.16 -174.55,149.4 -196,156.85 -29.8,-22.89 -108.02,-149.78 -148.76,-200.2l-65.08 -84.78c-31.17,-34.49 -72.09,-102.91 -89.53,-126.54 -14.27,-19.35 -22.69,-22.92 -35.76,-39.35 -37.58,-47.26 -28.99,-54.35 -90.24,-126.09 -10.38,-12.16 -24.79,-23.85 -35.89,-39.27 -10.92,-15.18 -17.02,-30.89 -30.98,-51.38zm1570.73 -2114.47c32.11,41.1 89.81,161.4 107.42,213.76 34.35,102.94 64.13,185.28 86.08,304.53 21.54,117.02 31.22,226.65 24.43,352.41 -13.27,245.71 -92.45,452.66 -190.54,642.92 -124.22,240.93 -408.74,617.11 -602.96,824.16l-96.57 98.54 -21.5 -18.09 -135.65 -113.55c-42.78,-32.41 -75.85,-64.4 -118.02,-95.51 -58.04,-42.8 -55.32,-50.62 -85.59,-75.46 -12.47,-10.23 -14.57,-14.23 -26.35,-12.54 45.72,-19.44 77.57,-8.92 122.01,-38.07 33.72,-22.13 50.72,-40.78 98.07,-46.23l17.52 82.17c103.79,21.72 196.56,-63.98 247.02,-145.63 4.52,-7.32 45.11,-81.54 50.61,-85.87 2.01,-30.8 11.18,-165.4 19.83,-179.58 24.56,-61.27 88.66,-71.63 124.86,-110.83 39.32,-42.58 77.93,-110.95 45.29,-167.58 -1.57,92.69 -37.26,124.96 -115.79,183.58 -25.62,19.12 -61.74,35.1 -78.6,62.7 -19.91,32.6 -1.36,45.18 -2.28,98.85 -0.98,57.89 -13.83,81.49 -36.34,116.34 -25.57,39.62 -39.38,42.03 -68.3,75.87l-116.46 103.86c-14.22,5.55 -14,7.24 -31.52,6.66 -32.5,-1.07 -57.71,-15.24 -35.33,-51.19 14.57,-23.41 19.35,-5.59 22.87,-39.91 -70.1,-5.06 -132.56,49.34 -184.4,72.31 -27.68,12.26 -73.35,20.65 -110.91,20.98 -28.44,0.25 -49.8,-16.69 -71.89,-43.98 -11.69,-14.44 -0.65,6.62 -10.6,-15.96 37.82,0.67 79.18,12.26 120.66,-14.96l-35.23 10.76c-34.68,4.5 -82.85,-7.63 -92.43,-19.94 -12.73,-40.07 17.69,-53.87 -21.73,-71.46 -11.92,19.8 -8.54,30.52 -8.8,62.44 -49.6,-10.85 -12.76,-1.67 -26.87,-17.63 -24.58,-13.02 -60.93,-44.72 -82.2,-63.95 -31.34,-28.32 -47.23,-38.73 -83.98,-67.46 -58.39,-45.64 -117.19,-89.98 -167.93,-135.91 -36.49,-19.85 -105.92,-82.33 -140.85,-110.93 -25.05,-20.51 -50.02,-33.62 -70.85,-51.59 -25.49,-22 -40.71,-38.61 -70.05,-55.43 -13.37,-23.61 -118.31,-99.55 -144.62,-117.71 -54.56,-37.65 -101.23,-82.06 -157.62,-115.65 -7.44,-22.69 -53.99,-52.31 -76.12,-68.84 -28.35,-21.18 -53.41,-43.19 -81.07,-62.09 -26.48,-14.76 -28.6,-30.76 -44.87,-54.64 -18.06,-26.52 -25.77,-21.24 -38.29,-52.85 -24.21,-19.9 -75.61,-91.53 -93.91,-121.61 -31.2,-21.67 -11.2,-24.65 -45.43,-41.56 -21.83,18.93 -21.2,16.07 -5.72,36.48 36.35,47.86 77.1,79.2 93.76,130.82 -34.55,-17.61 -77.1,-56.78 -106.58,-84.19 -29.04,-27 -36.64,-41.65 -76.35,-62.93 17.29,-14.64 13.57,-18.11 30.2,-32.91 19.22,-17.11 24.06,-13.3 38.64,-29.36 -5.96,-6.06 -10.81,-10.79 -15.56,-17.98 -19.67,13.07 -27.24,35.69 -51.19,41.23l-18.88 -0.15c-1,-2.27 -4.53,-0.54 -6.72,-1.15l-0.56 -13.71c4.37,-28.19 17.6,-24.86 37.24,-41.61 14.97,-12.77 5.41,-0.44 18.42,-20.52 -6.53,-6.31 -18.46,-6.41 -23.33,-8.45 -17.93,16.96 -23.42,21.57 -44.71,39.52l-49.12 26.99c-0.74,-1.6 -3.67,1.7 -5.62,2.17 -43.75,-28.45 -20.76,-33.76 -57.78,-34.23l-34.63 54.76c58.95,37.57 108.48,78.43 164.16,118.02 370.52,263.44 722.07,547.64 1078.06,826.46 7.93,6.21 12.25,8.89 21.39,16.7l20.45 20c29.91,-0.44 30.2,10.41 65.76,38.57l293.57 239.43c19.8,15.41 36.07,31.14 57.37,48.56l293.17 239.27c67.06,62.63 169.69,136.35 235.13,197.67l466.81 391.36c23.49,18.85 36.83,27.9 57.83,48.57l390.22 338.98c1.5,1.56 3.12,3.36 4.5,4.83l9.25 10.59c-63.54,-36.14 -236.26,-178.04 -306.22,-234.31l-745.77 -593.5c-18.53,-14.6 -35.09,-23.88 -53.28,-38.31 -32.85,-26.06 -67.11,-55.59 -101.8,-81.29 -67.64,-50.12 -131.7,-103.84 -200.46,-157.2 -38.72,-30.05 -32.15,-15.44 -49.45,-22.21 -3.29,-1.29 0.39,1.15 -8.91,-5.7l-6 -5.17c-0.63,-0.49 -2.39,-1.93 -3.02,-2.41 -1.23,-0.93 -7.8,-5.33 -9,-6.08l-686.72 -474.05c-150.82,-117.77 -307.46,-229.15 -452.32,-354.46l-432.43 -371.89c-18.06,-15.96 -25.47,-27.62 -44.96,-45.54l-40.45 -38.19c-4.5,-4.66 -4.8,-5.09 -9.83,-9.86l-7.86 -6.81c-23.39,-24.02 -15.26,-7.41 -10.83,-29.22 -20.7,-13.63 -7.33,-7.46 -30.89,-15.32 -14.87,26.01 -32.07,36.5 -47.39,59.58 -12.48,18.8 -32.59,42.56 -42.43,59.02l-19.93 -16.8c-8.35,-4.11 -16.02,-1.69 -17.65,-3.59 14.71,-19.36 16.88,-31.87 38.46,-56.23l39.62 -57.89c37.86,-62.31 78.92,-105.91 87.45,-123.3l-25.25 -12.72c-29.57,22.19 -25.81,51.18 -53.02,80.25 -53.44,57.09 -55.26,39.58 -72.61,36.49 11.56,-24.78 21.04,-49.46 38.15,-74.4 7.57,-11.04 21.4,-25.96 28.26,-32.68 8.35,-8.19 8.81,-7.69 16.15,-15.56 12.02,-12.89 -0.61,4.82 12.36,-15.25l-31.13 -22.54c-11.44,22.51 -21.15,45.18 -35.37,65.6 -15.09,21.68 -33.1,29.81 -44.46,52.16 -14.83,22.36 -22.81,25.15 -37.98,55.19 -19.92,39.42 -15.5,30.04 -48.8,50.63 -12.31,-21.19 -417.6,-328.79 -417.65,-328.75 0.82,3.47 4.08,10.95 6.58,14.98 55.58,37.23 134.47,109.94 184.52,158.3 27.57,26.63 62.67,52.08 94.43,79.5l115.38 96.76c16.17,8.53 9.83,-0.57 20.96,12.1l7.71 12.41c18.15,25.98 16.78,16.58 35.38,27.7 22.71,13.58 16.47,22.23 41.52,40.58 27.23,19.94 17.04,0.15 48.99,26.86 15.68,13.11 28.22,26.24 43.09,40.99l151.02 117.83c12.26,15.42 60.25,51.24 77.62,64.82 29.21,22.83 58.81,46.12 85.35,66.35 53.21,35.63 106.52,88.77 159.16,118.26 15.05,18.4 62.7,52.95 86.24,70.72 15.93,12.03 75.93,56.14 87.77,71.44 25.84,12.18 42.59,31.9 66.6,48.08 27.19,18.31 38.84,28.7 65.2,49.21 30.91,24.05 36.37,25.72 57.85,55.5 19.04,26.39 35.36,40.2 51.88,68.4 42.55,59.15 88.08,102.81 116.64,152.41 25.24,43.84 27.57,16.8 39.68,57.96 13.7,7.86 2.75,-0.2 15.61,13.59 46.91,50.28 62.44,84.54 74.77,96.76 67.59,66.96 79.38,113.44 121.9,161.62l95.24 115.1c9.16,14.15 14.66,27.77 26.2,40.81 33.26,37.57 10.86,-13.35 65.17,77.78 17.65,29.61 14.38,15.94 35.06,39.03 23.82,26.58 31.52,50.57 60.76,82.89l95.29 119.76 65.6 82.98c-21.04,24.82 -153.23,102.34 -189.69,124.03 -70.34,41.85 -135.61,79.24 -208.65,116.73 -496.63,254.95 -976.71,392.51 -1573.46,309.55 -72.14,-5.78 -239.04,-29.97 -296.14,-57.72l-129.29 -32.53c-91.75,-13.77 -220.07,-82.72 -293.28,-121.66 -99.09,-52.7 -155.8,-115.1 -231.02,-171.84 161.99,198.09 314.35,305.5 637.97,403.13 270.57,81.62 654.55,125.47 940.36,99.62 416.27,-37.65 764.96,-202.39 1109.96,-376.37 115.8,-58.39 212.2,-131.65 312.8,-191.22 31.76,23.22 104.12,127.81 134.43,165.26l221.62 272.81c15.79,20.83 33.59,34.57 50.12,54.79 16.08,19.65 26.93,34.52 43.01,54.51 47.2,58.71 238.79,298.4 286.9,304.77 -67.39,-164.23 -610.51,-891.46 -626.31,-927.35l28.15 -25.79c46.82,-34.75 168.67,-129.08 195.77,-162.72 33.95,9.14 249.76,170.69 297.28,203.4 97.19,66.9 196.64,134.66 293.99,203.13 7.21,5.07 742.2,510.47 604.84,321.71 -80.31,-110.37 -365.26,-363.98 -463.82,-450.91l-398.59 -344.98c-46.51,-41.46 -89.6,-70.7 -131.33,-113l224.05 -254.85c68.72,-84.42 141.83,-174.4 207.74,-264.57 311.88,-426.7 531.52,-879.84 401.77,-1432.18 -67.92,-289.09 -145.21,-425.77 -288.1,-626.56 9.56,25.56 21.81,36.21 29.83,59.31z"/>
   <path class="fil8" d="M8520.46 7277.57c12.37,-26.36 1.59,-9.01 21.4,-29.14l299.99 -313.08c13.99,30.61 56.38,215.43 58.01,260.66 -7.87,8.81 -3.69,4.19 -12.88,11.98 -1.69,1.43 -6.87,5.53 -8.64,6.91 -81.17,62.96 -624.69,401.31 -665.8,407.93 -32.25,10.28 -19.62,9.56 -59.23,9.8 -58.42,0.35 -106.33,12.27 -146.13,54.34 -21.48,22.71 -5.97,32.76 -100.09,44.34 -49.8,6.13 -83.2,-9.39 -105.28,-33.56l-178.9 93.07c-3.99,1.99 -10.43,4.96 -14.85,7.12l-259.38 123.44c-55.92,31.27 -356.68,149.5 -455.02,181.89 -36.16,11.91 -12.84,-1.42 -29.33,17.61 29.34,16.82 44.56,33.43 70.05,55.43 20.82,17.98 45.8,31.08 70.85,51.59 34.93,28.61 104.37,91.08 140.85,110.93 55.09,-11.33 150.16,-44.36 203.27,-62.97 54.07,-18.94 148.2,-60.31 197.08,-65.38 27.61,-5.52 48.18,-25.47 81.82,-40.69 99.67,-45.09 111.14,-158.42 183.63,-210.93 39,-28.25 121.76,-67.74 184.05,-72.89 143.07,-11.82 108.21,59.11 153.2,112.09 96.69,24.38 216.6,-58.24 235.02,68.76 32.64,56.63 -5.97,125 -45.29,167.58 -36.2,39.2 -100.3,49.56 -124.86,110.83 48.4,0.1 488.23,-258.43 553.18,-298.46 -23.76,132.3 -148.77,179.3 -274.33,267.83l-236.7 165.61c-74.78,52.61 -55.37,61.04 -61.98,44.59 -5.5,4.33 -46.08,78.55 -50.61,85.87 -50.46,81.65 -143.23,167.36 -247.02,145.63l-17.52 -82.17c-47.35,5.45 -64.35,24.11 -98.07,46.23 -44.44,29.16 -76.29,18.63 -122.01,38.07 11.78,-1.69 13.89,2.31 26.35,12.54 30.27,24.84 27.56,32.66 85.59,75.46 42.17,31.11 75.24,63.1 118.02,95.51 23.65,-3.27 48.98,-28.56 69.37,-41.66l493.37 -339.74 -204.18 258.63c-37.2,43.8 -141,170.08 -195.35,206.29 -30.47,20.3 -24.65,14.18 -27.56,30.03l21.5 18.09 96.57 -98.54c194.23,-207.05 478.74,-583.23 602.96,-824.16 98.09,-190.26 177.27,-397.2 190.54,-642.92 6.79,-125.76 -2.89,-235.39 -24.43,-352.41 -21.94,-119.25 -51.73,-201.58 -86.08,-304.53 -14.6,60.36 42.41,2 -48.76,99.37 -1.04,1.11 -2.52,2.76 -3.53,3.9 -1.02,1.15 -2.36,2.93 -3.36,4.1l-55.48 58.55c-10.27,8.02 -1.95,-0.75 -13.3,8.96 -26.37,22.59 -6,10.78 -22.78,30.07l-25.95 19.5c-22.36,18.17 -5.04,3.47 -19.92,24.98 -25.74,37.22 -43.13,49.98 -73.43,70.23l-77.52 78.04c12.26,2.79 5.01,2.13 16.15,11.37 14.35,11.91 -2.24,4.02 22.72,17.43z"/>
   <path class="fil9" d="M4392.37 9265.06c12.6,35.93 20.54,67.14 34.15,103.2 16.69,44.2 85.65,183.19 119.42,214.55 1.16,1.08 3,2.37 4.11,3.45 14.02,13.49 18.9,25.81 27.81,38.96 98.73,-32.27 172.45,-86.86 337.8,-112.86 -8.6,-95.79 95.4,-145.05 165.89,-170.72 129.01,-46.98 126.66,-15.94 202.33,-132 63.56,-97.5 67.26,-117.36 176.02,-162.88 38.99,-16.31 83.89,-33.75 136.49,-29.56 83.43,6.64 72.89,37.47 103.48,70.36 70.46,-8.36 139.39,-27.52 210.21,-38.39 73.03,-11.21 140.72,-23.2 210.42,-33.37 148.21,-21.63 285.91,-41.24 432.6,-59.23 47.25,-8.56 110.23,-44.64 179.17,-55.92 67.99,-11.12 166.69,-6.38 220.06,26.52 125.96,77.67 230.27,139.83 196.76,307.21 -9.88,49.36 -60.95,145.11 -86.28,176.43 -46.84,57.91 -99.31,66.81 -169.22,81.29 -89,18.43 -103.16,49.43 -148.57,104.98 -24.37,29.81 -143.25,137.77 -195.38,53.31l-18.78 -36.75c-0.85,-1.52 -2.22,-4.11 -3.65,-5.93 -104.19,24.53 -202.38,187.58 -298.88,116.33 -23.52,-17.36 -2.45,-13.96 -40.89,-32.86l-202 109.01c-40.46,16.32 -62.07,39.62 -126.48,65.16l-81.43 43.52c-1.5,0.75 -3.56,1.6 -5.07,2.35l-81.99 34.91c-60.52,24.81 -111.91,53.99 -174.2,76.9 16.05,20.28 -21.27,11.61 39.2,26.13 596.76,82.96 1076.83,-54.6 1573.46,-309.55 73.04,-37.49 138.31,-74.88 208.65,-116.73 36.46,-21.69 168.65,-99.2 189.69,-124.03l-65.6 -82.98c-210.04,134 -433.36,261.98 -661.82,391.32 -55.68,31.52 -298.43,162.65 -344.89,178.45 -111.76,37.99 -312.17,73.67 -436.54,75.56l38.73 -23.61c18.69,-9.04 26.44,-13.16 44.09,-22.12 30.91,-15.69 55.32,-27.94 88.08,-44.5 60.87,-30.76 115.79,-59.03 175.15,-90.39 118.45,-62.57 229.28,-123.57 339.41,-185.16l662.51 -399.31c-29.24,-32.31 -36.94,-56.31 -60.76,-82.89 -20.68,-23.08 -17.41,-9.42 -35.06,-39.03 -54.31,-91.13 -31.91,-40.21 -65.17,-77.78 -11.54,-13.04 -17.04,-26.66 -26.2,-40.81l-95.24 -115.1c-42.52,-48.17 -54.31,-94.66 -121.9,-161.62 -12.33,-12.21 -27.86,-46.48 -74.77,-96.76 -12.87,-13.79 -1.91,-5.73 -15.61,-13.59 -55.45,36.92 -1104.44,225.8 -1270.02,260.9 -300.94,63.8 -631.71,138.85 -921.66,236.35 -58.64,19.71 -246.78,98.03 -287.63,99.28z"/>
   <path class="fil10" d="M8263.36 6951.23c0.06,-0.01 11.57,-10.09 38.58,-2.8 42.16,11.39 44.97,55.54 38.32,81.89 -12.36,49 -50.76,69.52 -58.14,109.82 -7.5,40.93 38.56,51.87 45.11,107.26 5.57,47.04 -26.48,70.06 -70.83,67.39 -107.59,-6.48 -44.46,69.94 -79.98,144.16 -65.1,136.05 -148.24,5.53 -197.91,33 -35.91,19.86 -97.5,56.12 -147.19,7.35 -48.1,-47.21 -19.34,-275.94 12.41,-332.58 22.49,-40.13 54.01,-62.02 83.19,-91.62l61.22 -59.7c6.13,-5.19 13.93,-11.43 21,-16.57 31.6,-22.97 65.7,-41.61 113.13,-45.83l141.09 -1.76zm109.55 -117.76c-28.04,15.43 -63.57,52.35 -88.61,61.37 -76.31,27.49 -29.55,-99.8 -301.32,90.27 -17.67,12.35 -25.43,22.12 -39.74,35.8 -16.67,15.94 -24.17,17.32 -41.17,33.35 -23.54,22.2 -42.02,47.65 -67.1,76.61 -54.16,62.54 -74.17,99.24 -107.11,192.6 11.89,65.2 -13.47,85.75 9.26,143.26 -31.6,7.1 -104.46,47.65 -139.37,63.44 -144.69,65.47 -268.34,115.56 -424.02,169 -100.54,34.51 -202.78,63.37 -304.09,94.48l-276.48 70.81c-41,14.46 -14.18,-5.8 -31.08,23.06 56.39,33.59 103.07,78 157.62,115.65 26.31,18.17 131.25,94.1 144.62,117.71 16.48,-19.03 -6.83,-5.7 29.33,-17.61 98.35,-32.39 399.1,-150.63 455.02,-181.89l259.38 -123.44c4.41,-2.16 10.85,-5.13 14.85,-7.12l178.9 -93.07c22.08,24.17 55.48,39.69 105.28,33.56 94.12,-11.58 78.61,-21.63 100.09,-44.34 39.8,-42.07 87.71,-53.98 146.13,-54.34 39.61,-0.24 26.98,0.48 59.23,-9.8 68.07,-36.57 36.57,-61.21 64.78,-129.92 39.88,-97.13 86.12,-42.6 96.34,-38.34 79.31,33.07 221.76,-98.35 146.81,-177 -24.96,-13.4 -8.37,-5.52 -22.72,-17.43 -11.13,-9.24 -3.89,-8.58 -16.15,-11.37l77.52 -78.04c30.3,-20.25 47.69,-33.01 73.43,-70.23 14.88,-21.51 -2.44,-6.8 19.92,-24.98l25.95 -19.5c16.77,-19.29 -3.6,-7.48 22.78,-30.07 11.35,-9.72 3.02,-0.94 13.3,-8.96l55.48 -58.55c1,-1.17 2.34,-2.95 3.36,-4.1 1.01,-1.14 2.48,-2.79 3.53,-3.9 91.16,-97.37 34.16,-39.02 48.76,-99.37 -17.61,-52.36 -75.3,-172.66 -107.42,-213.76 -21.49,9.25 -17.53,7.44 -33.69,29.6l-70.81 88.26c-156,183 -80.96,92.34 -100.64,179.09 -10.44,46.04 -55.24,58.57 -72.03,100.3 -74.96,-35.9 -20.68,-44.37 32.41,-117.6 19.15,-26.42 19.29,-58.36 -7.77,-73.48 -16.47,-9.2 -10.67,-5.28 -32.92,-7l-59.84 -2.99z"/>
   <path class="fil10" d="M5757.54 8667.42c-4.72,15.03 13.16,-0.2 -20.07,16.01 -73.81,36.03 -150.47,51.56 -233.63,48.27 -104.88,34.6 -403.8,94.1 -579.84,147.81l-277.3 86.59c-48.17,16.14 -85.85,29.53 -135.62,47.03l-139.6 52.92 -2.14 21.62c-4.73,34.13 16.33,145.51 23.03,177.4 40.86,-1.25 228.99,-79.56 287.63,-99.28 289.94,-97.49 620.72,-172.55 921.66,-236.35 165.57,-35.1 1214.56,-223.98 1270.02,-260.9 -12.11,-41.16 -14.43,-14.11 -39.68,-57.96 -28.56,-49.6 -74.09,-93.26 -116.64,-152.41 -150.42,37.21 -320.82,75.31 -477.87,110.01 -83.44,18.44 -157.88,35.07 -242.54,52.44 -47.52,9.76 -191.89,48.71 -237.43,46.8z"/>
   <path class="fil10" d="M7911.44 6754.19c-20.77,17.8 -30.98,63.32 -48.91,83.27 -18.11,20.16 -54.45,36.08 -85.47,48.33 -129.08,50.97 -158.21,-52.54 -202.57,-24.86l-211.64 147.47c-24.26,13.54 -48.95,28.59 -77,40.75 -282.33,122.4 -626.16,243.5 -943.52,212.6 -41.47,-4.04 -162.98,-24.65 -199.41,-53.86l26.35 -63.57c-38,5.45 -83.03,22.23 -115.5,-0.35 -35.25,-24.51 -26.27,-53.69 -44.06,-88.64 -46.63,-7.85 -91.91,5.61 -100.95,-46.92 -7.41,-43.04 19.44,-80.44 30.26,-114.36 -11.81,21.47 -22.12,22.59 -41.78,39.35l-19.43 18.42c-22.53,21.19 -38.83,39.4 -68.22,53.77l14.04 27.42c6.01,7.22 14.24,14.32 21.69,23.41l110.17 137.02c18.21,21.42 20.22,30.76 37.88,51.99 19.02,22.87 101.66,117.16 102.36,136.07 4.87,2.04 16.8,2.14 23.33,8.45 -13.01,20.08 -3.45,7.75 -18.42,20.52 -19.65,16.75 -32.87,13.41 -37.24,41.61l0.56 13.71c2.19,0.6 5.71,-1.12 6.72,1.15l18.88 0.15c23.94,-5.54 31.52,-28.16 51.19,-41.23 4.75,7.19 9.59,11.92 15.56,17.98 -14.58,16.06 -19.42,12.24 -38.64,29.36 -16.63,14.81 -12.91,18.27 -30.2,32.91 39.71,21.29 47.31,35.93 76.35,62.93 29.48,27.41 72.03,66.58 106.58,84.19 -16.65,-51.61 -57.41,-82.96 -93.76,-130.82 -15.49,-20.41 -16.11,-17.55 5.72,-36.48 34.23,16.91 14.22,19.89 45.43,41.56 5.29,-4.44 672.39,-148.81 837.26,-212.48 169.91,-65.61 276.54,-98.76 447.48,-198.09l766 -538.54c23.31,-17.91 28.17,-33.65 51.54,-54.29 22.3,-19.7 36.52,-33.57 63.04,-49.44 20.57,-12.31 102.38,-89.91 111.84,-114.56 -19.42,-31.99 -44.19,-45.69 -73.41,-70.44 -24.2,-20.49 -52.84,-44.84 -84.28,-63.27 -23.83,8.27 -17.32,5.81 -31.37,32.17l-94.97 149.81c-0.93,1.27 -2.3,3.01 -3.24,4.27l-6.5 8.35c-0.94,1.24 -2.34,2.92 -3.27,4.17 -1.41,1.89 -10.89,15.55 -12.53,18.12l-115.08 142.85c-1.01,1.26 -2.31,3.06 -3.34,4.3 -11.89,14.3 -2.23,3.31 -14.63,15.54l-89.94 90.98c-56.71,33.75 -25.35,45.63 -60.96,57.3z"/>
   <path class="fil11" d="M7698.76 6275.07c32.53,1.02 37.7,4.86 64.07,15.27 110.32,32.52 154.8,111.56 14.74,197.26 -329.1,201.37 -455.96,91.52 -344.11,-23.84 9.7,-10 20.63,-19.96 27.21,-25.4 81.26,-67.24 62.47,-85.5 112.48,-130.19 15.7,-14.04 92.05,-72.91 125.6,-33.1zm-266.93 11.12l-38.8 46.74c-33.89,27.07 -39.45,41.95 -93.19,58 -55.34,16.53 -261.65,42.06 -144.11,207.49 -29.16,40.04 -41.08,29.62 -72.08,57.69 64.45,-14.76 64.61,-22.96 103.72,-63.91 0.4,39.94 -35.88,56.23 -64.96,74.04 -59.8,36.63 -9.96,33.39 -60.26,60.08l-11.04 4.16c9.31,61.69 65.24,93.98 132.25,62.84 47.13,-21.9 84.02,-68.8 141.63,-41.85l-27.96 138.03 19.02 43.96c49.06,35.94 75.77,48.28 131.87,2.98 22.1,-17.85 32.66,-25.24 55.81,-41.74 27.11,-19.3 32.94,-28.18 70.77,-33.8 44.36,-27.69 73.49,75.83 202.57,24.86 31.02,-12.25 67.37,-28.17 85.47,-48.33 17.92,-19.95 28.14,-65.48 48.91,-83.27 44.03,-83.3 150.71,-110.14 161.23,-236.42 20.76,-249.19 -267.37,-356.14 -391.47,-350.24 -104.77,4.98 -192.9,64.35 -249.37,118.66z"/>
   <path class="fil8" d="M6512.74 6464.31c83.04,0.34 136.23,0.92 177.3,51.45 31.98,39.35 40.92,94.33 40.81,160.99 -3.98,38.99 -2.28,7.43 8.14,21.53 34.09,-55.59 164.36,-159.15 220.76,-196.6 159.67,-106.05 243.41,-176.95 472.09,-215.49 56.47,-54.31 144.6,-113.68 249.37,-118.66 124.1,-5.9 412.23,101.04 391.47,350.24 -10.52,126.28 -117.2,153.11 -161.23,236.42 35.61,-11.67 4.25,-23.55 60.96,-57.3l89.94 -90.98c12.4,-12.23 2.74,-1.24 14.63,-15.54 1.03,-1.23 2.33,-3.04 3.34,-4.3l115.08 -142.85c1.64,-2.57 11.12,-16.23 12.53,-18.12 0.93,-1.25 2.33,-2.94 3.27,-4.17l6.5 -8.35c0.94,-1.26 2.31,-3 3.24,-4.27l94.97 -149.81c14.06,-26.35 7.54,-23.89 31.37,-32.17 -91.45,-75.65 -488.54,-274.35 -660.78,-256.21 -29.89,9.28 -63.59,12.81 -93.42,20.39l-384.89 123.67c-9.09,4.08 -8.53,5.2 -18.81,10.51l-121.99 57.01c-128.82,55.51 -229,111.12 -353.53,167.17 -2.12,0.96 -8.15,3.68 -10.13,4.7l-58.98 28.03c-13.04,5.94 -19.4,9.79 -32.74,19.31l-16.71 12.82c-2.07,1.39 -0.8,1.47 -14.01,8.15 -11.29,5.72 -27.16,11.55 -35.06,16.45l-17.93 13.46c-1.42,1.12 -3.77,3.1 -4.95,4.04 -1.23,0.98 -4.47,5.69 -5.22,4.2 -0.76,-1.54 -3.48,2.99 -5.4,4.25z"/>
   <path class="fil12" d="M6378.4 9232.52c-34.54,24.18 -139.92,43.54 -127.62,-21.46 10.89,-57.54 89.17,-53.3 132.63,-29.33l-5.02 50.8zm251.3 249.28c-3.31,-9.9 15.11,-22.29 -63.95,-2.92 -93.33,22.88 -184.46,59.66 -173.33,-94.43 6.57,-90.98 92.23,-95.54 129.72,-126.67 57.89,-48.07 -16.17,-108.62 29.75,-184.79 104.66,-173.59 466.52,-105.25 489.34,81.34 16.87,137.96 -74.67,242.51 -211.36,272.05l-179.54 37.12c-1.85,1.24 -6.64,5.59 -8.28,6.96 -43.13,36.06 24.19,-12.37 -12.35,11.33zm-76.59 -525.24c-131.03,143.07 -88.4,121.7 -261.22,132.76 -58.25,3.72 -115.81,22.62 -132.69,63.03 -30.6,73.28 26.8,84.53 40.74,136.69 -7.87,83.89 -62.78,90.94 -118.68,126.63 -22.14,14.13 -52.27,39.51 -61.39,66.67 -15.64,46.58 12.59,48.09 34.72,82.43 83.06,30.34 114.03,-12.68 162.72,-49.07 6.35,-4.75 5.09,-2.2 8.37,-5.57 30.94,-31.77 -7.01,-43.45 -40.07,-24.9 -22.43,12.59 -1.87,18.19 -46.5,28.65 14.13,-27.63 2.33,-9.9 23.14,-29.91 56.63,-54.46 85.05,-19.37 111.11,2.5 -2.53,102.7 -109.54,132.73 -85.92,204.71 38.43,18.9 17.37,15.5 40.89,32.86 96.5,71.25 194.69,-91.8 298.88,-116.33 1.44,1.82 2.8,4.41 3.65,5.93l18.78 36.75c52.13,84.46 171.01,-23.49 195.38,-53.31 45.41,-55.56 59.56,-86.55 148.57,-104.98 69.91,-14.48 122.39,-23.38 169.22,-81.29 25.33,-31.32 76.4,-127.07 86.28,-176.43 33.51,-167.38 -70.8,-229.54 -196.76,-307.21 -53.37,-32.91 -152.07,-37.65 -220.06,-26.52 -68.94,11.28 -131.93,47.36 -179.17,55.92z"/>
   <path class="fil13" d="M6295.64 6564.19c168.78,-7.49 -41.99,198.43 -138.99,205.29 -92.35,6.54 -67.3,-93.33 -24.5,-134.33 53.63,-51.39 64.35,-66.56 163.5,-70.96zm-356.6 329.85c-10.81,33.92 -37.67,71.32 -30.26,114.36 9.04,52.52 54.32,39.07 100.95,46.92 17.79,34.95 8.8,64.13 44.06,88.64 32.46,22.58 77.5,5.8 115.5,0.35 7,-7.39 106.89,-59.32 126.2,-68.28 57.22,-26.55 112.68,-17.07 157.98,-36.73 120.91,-52.48 103.63,-187.25 177.56,-229.97 18.35,-24.59 36.73,-35.22 57.45,-59.18 27.43,-31.72 23.3,-47.15 42.38,-73.41 0.11,-66.66 -8.83,-121.64 -40.81,-160.99 -41.07,-50.53 -94.25,-51.11 -177.3,-51.45 -45.34,3.45 -151.73,-66.25 -374.24,105.15 -236.36,182.07 -135.53,211 -199.46,324.58z"/>
   <path class="fil9" d="M6321.72 7649.08c12.52,31.61 20.23,26.33 38.29,52.85 16.27,23.89 18.39,39.88 44.87,54.64 41.5,-2.27 134.12,-27.57 179.37,-37.77 257.32,-57.99 607.75,-155.92 843.65,-253.26 53.11,-21.92 276.84,-118.81 299.94,-142.08 32.94,-93.36 52.96,-130.06 107.11,-192.6 25.08,-28.96 43.56,-54.4 67.1,-76.61 16.99,-16.03 24.49,-17.4 41.17,-33.35 14.31,-13.68 22.07,-23.44 39.74,-35.8 271.78,-190.07 225.01,-62.78 301.32,-90.27 25.04,-9.02 60.57,-45.93 88.61,-61.37 46.71,-54.43 90.87,-102.07 135.51,-159.91 26.51,-34.35 98.46,-141.26 129.47,-157.58 -28.57,-38.27 -56.1,-85.44 -95.77,-116.84 -28.41,14.84 -32.88,26.13 -59.22,57.69l-395.48 396.81c-192.35,164.05 -310.64,240.96 -531.42,369.76 -265.43,154.84 -605.65,283.03 -906.38,354.53 -54.68,13 -299.58,56.69 -327.9,71.15z"/>
   <path class="fil9" d="M6822.24 6025.46l-227.64 145.07c-260.06,159.24 -373.86,253.65 -584.89,397.31 -13.02,8.87 -20.81,15.58 -34.17,25.72 -15.74,11.94 -19.39,11.9 -35.31,23.91l-72.55 54.9c-23.16,19.52 -40.84,30.13 -67.43,52.04 -16.67,13.74 -22.51,13.58 -39.85,26.87l-98.91 74.07c-40.64,23.78 -12.96,-5 -51.29,38.24 -1.01,1.14 -2.41,2.92 -3.43,4l-26.09 20.87c10.16,16.52 7.23,5.63 11.73,28.23l91.63 -53.77c23.32,8.95 1.86,-4.28 17.9,12.03 9.6,22.19 87.06,106.33 107.67,130.65 29.39,-14.37 45.69,-32.57 68.22,-53.77l19.43 -18.42c19.66,-16.77 29.96,-17.88 41.78,-39.35 63.93,-113.58 -36.9,-142.51 199.46,-324.58 222.51,-171.4 328.91,-101.7 374.24,-105.15 1.91,-1.26 4.63,-5.79 5.4,-4.25 0.74,1.5 3.99,-3.21 5.22,-4.2 1.18,-0.94 3.53,-2.92 4.95,-4.04l17.93 -13.46c7.9,-4.9 23.77,-10.73 35.06,-16.45 13.2,-6.69 11.93,-6.77 14.01,-8.15l16.71 -12.82c13.34,-9.52 19.69,-13.37 32.74,-19.31l58.98 -28.03c1.98,-1.02 8.01,-3.75 10.13,-4.7 124.53,-56.06 224.71,-111.66 353.53,-167.17l121.99 -57.01c10.28,-5.31 9.73,-6.43 18.81,-10.51l384.89 -123.67c29.83,-7.58 63.54,-11.11 93.42,-20.39 -225.04,-5.99 -177.59,-13.83 -444.47,3.94 -86.6,5.76 -361.21,25.67 -419.79,51.38z"/>
   <path class="fil14" d="M5728.12 9306.3c-29.99,60.09 -78.92,126.93 -120.09,172.5 -65.53,72.54 -102.22,46 -152.37,141.02 -21.65,41.04 -55.2,47.09 -90.45,12.94 -36.93,-35.76 -54.26,-31.05 -96.5,-2.08 -100.56,68.99 -118.06,-58.05 -117.86,-137.96 0.23,-92.87 41.4,-141.83 90.32,-194.79 32.02,-34.66 44.31,-37.06 77.52,-64.51 82.43,-68.14 188.87,-151.41 303.78,-97.48 58.46,27.43 150.52,80.43 105.65,170.35zm-812.44 206.06c43.74,81.99 71.89,64.78 181.72,78.17 -18.65,54.45 -59.58,89.88 -37.96,159.37 12.12,38.96 58.82,87.96 99.61,101.95 130.46,44.72 193.43,-76.41 287.84,-86.08 87.26,-13.14 103.62,34.13 201.02,-22.03 155.52,-89.68 152.8,-200.52 211.07,-308.63 32.03,-59.42 76.85,-86.67 100.4,-158.38 5.15,-60.31 -17.3,-133.77 -63.36,-145.78 -57.73,-15.04 -101.59,22.52 -187.22,0.81l-8.93 -44.2c-30.59,-32.89 -20.05,-63.72 -103.48,-70.36 -52.61,-4.19 -97.5,13.25 -136.49,29.56 -108.77,45.52 -112.46,65.38 -176.02,162.88 -75.67,116.06 -73.31,85.02 -202.33,132 -70.49,25.67 -174.49,74.93 -165.89,170.72z"/>
   <path class="fil15" d="M7716.56 8499.06c-40.11,-2.89 -79.32,-45.2 -90.02,-77.6 -24.77,-75.05 75.13,-263.23 139.38,-320.82 82.15,-73.63 196.65,-149.15 322.33,-78.05 102.69,58.1 86.01,90.15 16.94,152.92 -160.81,146.16 -41.23,173.64 -79.6,218.8 -13.86,16.31 -38.01,20.88 -55.81,21.98 -18.89,1.16 -72.93,-3.18 -96.35,3.79 -63.59,18.9 -40.19,87.41 -156.87,78.98zm-170.13 -288.57c-29.31,44.01 -84.87,63.58 -98.22,133.99 -19.03,100.35 61.65,134.36 73.25,148.05 -4.75,30.91 -29.38,74.04 -41.27,113.63 14.12,15.95 -22.72,6.78 26.87,17.63 0.26,-31.92 -3.12,-42.64 8.8,-62.44 39.42,17.6 9,31.39 21.73,71.46 9.58,12.32 57.75,24.44 92.43,19.94l35.23 -10.76c-41.48,27.22 -82.84,15.63 -120.66,14.96 9.95,22.58 -1.09,1.52 10.6,15.96 22.09,27.29 43.45,44.22 71.89,43.98 37.55,-0.33 83.23,-8.72 110.91,-20.98 51.85,-22.98 114.3,-77.38 184.4,-72.31 -3.51,34.32 -8.3,16.5 -22.87,39.91 -22.38,35.96 2.83,50.13 35.33,51.19 17.52,0.58 17.3,-1.11 31.52,-6.66l116.46 -103.86c28.93,-33.84 42.73,-36.25 68.3,-75.87 22.5,-34.85 35.35,-58.45 36.34,-116.34 0.91,-53.67 -17.64,-66.25 2.28,-98.85 16.86,-27.6 52.98,-43.58 78.6,-62.7 78.53,-58.62 114.22,-90.89 115.79,-183.58 -18.42,-127 -138.33,-44.38 -235.02,-68.76 -44.99,-52.98 -10.13,-123.92 -153.2,-112.09 -62.29,5.15 -145.04,44.64 -184.05,72.89 -72.49,52.52 -83.96,165.84 -183.63,210.93 -33.64,15.22 -54.21,35.17 -81.82,40.69z"/>
   <path class="fil8" d="M4577.62 8376.88c-49.5,54.3 -122.59,190.06 -146.16,274.46 48.94,-47.81 316.94,-133.22 409.14,-165.79 129.19,-45.64 333.99,-95.31 422.47,-128.76 -5.12,135.15 -47.88,107.06 27.63,269.06 -48.02,7.2 -408.41,142.41 -470.98,168.72 -68.1,28.62 -155.05,61.17 -230.68,91.61 -32.88,13.23 -198.34,87.17 -225.26,87.74 1.13,27.29 1.57,29.89 0.8,53.9 -0.56,17.64 -3.56,43.48 4.77,59.85l2.14 -21.62 139.6 -52.92c49.77,-17.5 87.45,-30.89 135.62,-47.03l277.3 -86.59c176.05,-53.71 474.96,-113.2 579.84,-147.81 -43.13,-1.35 -49.96,-3.55 -87.19,-15.41 -14.8,-4.71 -28.65,-8.11 -39.78,-15.48l-17.56 -18.57c-0.29,-2.13 -1.63,-2.79 -2.52,-4.13 -34.12,-25.45 -58.76,-52.89 -74.65,-99.43 -98.57,-288.75 282.53,-645.2 584.94,-541.34l-47.31 -24.03c-203.01,-52.24 -363.67,112.06 -444.15,131.3 -56.35,13.47 -107.49,26.29 -161.49,40.46 -112.29,29.47 -216.26,56.63 -325.07,88.78 -112.19,33.15 -205.71,72.96 -311.44,103.04z"/>
   <path class="fil16" d="M6227.81 7527.47c18.3,30.09 69.7,101.72 93.91,121.61 28.32,-14.46 273.22,-58.15 327.9,-71.15 300.73,-71.5 640.95,-199.69 906.38,-354.53 220.78,-128.79 339.06,-205.71 531.42,-369.76l395.48 -396.81c26.34,-31.56 30.81,-42.85 59.22,-57.69l-37.15 -39.09c-9.46,24.65 -91.27,102.25 -111.84,114.56 -26.52,15.87 -40.74,29.74 -63.04,49.44 -23.37,20.64 -28.23,36.38 -51.54,54.29l-766 538.54c-170.94,99.33 -277.57,132.48 -447.48,198.09 -164.87,63.67 -831.98,208.05 -837.26,212.48z"/>
   <path class="fil17" d="M4431.46 8651.34c-36.34,91.34 -62.89,213.69 -67.69,322.56 26.92,-0.57 192.38,-74.5 225.26,-87.74 75.63,-30.44 162.58,-62.98 230.68,-91.61 62.58,-26.3 422.97,-161.52 470.98,-168.72 -75.5,-162 -32.75,-133.91 -27.63,-269.06 -88.48,33.46 -293.28,83.12 -422.47,128.76 -92.2,32.57 -360.19,117.98 -409.14,165.79z"/>
   <path class="fil17" d="M7187.95 8451.88l-7.32 2.85c-16.5,45.97 16.58,-4.08 -3.06,47.73 -30.71,3.52 -132.37,-84.18 -166.27,-110.71l-557.49 -425.81c-79.05,-61.64 -529.02,-417.28 -561.57,-432.43 -4.43,21.81 -12.57,5.2 10.83,29.22l7.86 6.81c5.03,4.77 5.34,5.2 9.83,9.86l40.45 38.19c19.5,17.92 26.91,29.58 44.96,45.54l432.43 371.89c144.86,125.31 301.5,236.69 452.32,354.46l686.72 474.05c1.2,0.75 7.77,5.15 9,6.08 0.63,0.48 2.39,1.92 3.02,2.41l6 5.17c9.3,6.85 5.62,4.41 8.91,5.7 17.3,6.77 10.73,-7.84 49.45,22.21 68.77,53.36 132.82,107.08 200.46,157.2 34.69,25.69 68.94,55.23 101.8,81.29 18.2,14.43 34.75,23.72 53.28,38.31l745.77 593.5c69.96,56.27 242.68,198.17 306.22,234.31l-9.25 -10.59c-1.38,-1.48 -3,-3.28 -4.5,-4.83l-390.22 -338.98c-21,-20.67 -34.34,-29.72 -57.83,-48.57l-466.81 -391.36c-65.44,-61.31 -168.07,-135.04 -235.13,-197.67l-293.17 -239.27c-21.3,-17.42 -37.57,-33.15 -57.37,-48.56l-293.57 -239.43c-35.56,-28.17 -35.85,-39.02 -65.76,-38.57z"/>
   <path class="fil18" d="M7316.04 6933.48c-64.35,40.61 -253.89,91.65 -349.71,106.09 -162.79,24.54 -261.63,9.58 -395.28,-54.36 3.28,-39.28 11.37,-64.81 24.32,-97.69 8.34,-21.17 31.27,-55.63 35.64,-78.19 -73.93,42.72 -56.65,177.49 -177.56,229.97 -45.3,19.67 -100.76,10.19 -157.98,36.73 -19.3,8.95 -119.2,60.88 -126.2,68.28l-26.35 63.57c36.43,29.21 157.94,49.82 199.41,53.86 317.36,30.9 661.18,-90.2 943.52,-212.6 28.04,-12.16 52.74,-27.22 77,-40.75l211.64 -147.47c-37.82,5.63 -43.65,14.5 -70.77,33.8 -23.16,16.49 -33.71,23.89 -55.81,41.74 -56.09,45.3 -82.81,32.96 -131.87,-2.98z"/>
   <path class="fil17" d="M7461.69 9415.86l-95.29 -119.76 -662.51 399.31c-110.13,61.59 -220.96,122.59 -339.41,185.16 -59.36,31.35 -114.29,59.63 -175.15,90.39 -32.76,16.56 -57.17,28.8 -88.08,44.5 -17.65,8.96 -25.4,13.09 -44.09,22.12l-38.73 23.61c124.38,-1.89 324.79,-37.56 436.54,-75.56 46.46,-15.8 289.21,-146.93 344.89,-178.45 228.46,-129.33 451.78,-257.31 661.82,-391.32z"/>
   <path class="fil9" d="M4791.09 8162.19c259.51,-93.96 604.52,-174.44 882.79,-243.04l228.88 -52.57c27.19,-5.8 54.14,-8.11 74.94,-21.17l-151.02 -117.83c-14.87,-14.76 -27.41,-27.88 -43.09,-40.99 -31.94,-26.71 -21.76,-6.92 -48.99,-26.86 -25.05,-18.35 -18.81,-27 -41.52,-40.58 -18.6,-11.12 -17.23,-1.72 -35.38,-27.7l-7.71 -12.41c-11.13,-12.68 -4.79,-3.57 -20.96,-12.1l-115.38 -96.76c-31.75,-27.43 -66.86,-52.87 -94.43,-79.5 -50.05,-48.35 -128.94,-121.07 -184.52,-158.3 -2.33,54.83 16.07,54.58 29.58,94.16 10.46,30.65 -9.72,24.98 41.77,84.17 42.77,49.17 76.93,79.18 127.76,122.88 52.89,45.47 85.72,62.49 96.28,96.42 30.74,98.77 -6.06,179.15 -70.15,221.36 -95.37,62.81 -239.15,85.57 -357.11,132.15 -91.76,36.23 -271.36,119.48 -311.74,178.67z"/>
   <path class="fil17" d="M4791.09 8162.19c-31.48,6.66 -39.87,26.55 -63.59,46.52 -23.7,19.95 -33.41,28.82 -54.53,51.12 -33.33,35.2 -71.09,74.5 -95.35,117.06 105.72,-30.08 199.24,-69.89 311.44,-103.04 108.82,-32.14 212.78,-59.3 325.07,-88.78 54,-14.17 105.14,-27 161.49,-40.46 80.48,-19.24 241.14,-183.53 444.15,-131.3l47.31 24.03 11.1 3.82c11.98,-20.83 -12.97,-4.31 27.49,-16.13l234.99 -48.46c-26.54,-20.22 -56.14,-43.52 -85.35,-66.35 -17.37,-13.57 -65.36,-49.4 -77.62,-64.82 -20.8,13.06 -47.74,15.36 -74.94,21.17l-228.88 52.57c-278.27,68.6 -623.28,149.09 -882.79,243.04z"/>
   <path class="fil7" d="M4610.13 6757.67c28.34,26.94 110.72,216.63 310.61,283.13 65.39,21.76 99.5,13.44 158.09,42.42 17.8,-4.68 48.54,-47.96 59.54,-65.21l23.71 -31.31 44.33 -63.63c19.6,-28.09 11.37,-13.31 5.86,-23.78 -26.69,-22.52 -27.9,8.48 -42.77,30.54 -15.27,22.65 -31.97,30.56 -46.96,53.44 -16.48,-15.93 -8.26,-15.93 -32.05,-24.95 27.12,-72.95 83.89,-69.32 59.56,-151.13 -19.62,-65.98 -39.68,-102.76 -84.54,-138.36 -44.48,-35.28 -89.07,-57.28 -151.66,-80.07 -58.92,-21.45 -116.88,-45.31 -178.7,-65.45 30.36,45.31 109.21,105.5 90.76,188.67 -131.53,80.2 -62.3,-105.54 -207.23,-44.29 -9.05,37.75 0.13,50.87 -8.55,89.96z"/>
   <path class="fil10" d="M5600.1 6671.75c8.82,19.35 24.11,36.05 37.13,65.26 11.97,26.86 21.11,54.45 24.26,88.33l98.91 -74.07c17.35,-13.28 23.19,-13.13 39.85,-26.87 26.58,-21.91 44.26,-32.52 67.43,-52.04l72.55 -54.9c15.92,-12.01 19.57,-11.98 35.31,-23.91 13.36,-10.14 21.15,-16.85 34.17,-25.72 211.03,-143.66 324.83,-238.07 584.89,-397.31l227.64 -145.07c-79.89,4.9 -286.83,79.84 -351.85,106.57 -112.32,46.19 -216.04,90.59 -315.6,147.51 -108.51,62.03 -192.31,114.41 -287.71,180.01l-266.98 212.19z"/>
   <path class="fil17" d="M6404.89 7756.57c27.67,18.91 52.73,40.91 81.07,62.09 22.13,16.54 68.68,46.15 76.12,68.84 16.9,-28.87 -9.92,-8.6 31.08,-23.06l276.48 -70.81c101.31,-31.1 203.55,-59.96 304.09,-94.48 155.67,-53.44 279.32,-103.53 424.02,-169 34.91,-15.8 107.77,-56.35 139.37,-63.44 -22.72,-57.5 2.63,-78.05 -9.26,-143.26 -23.1,23.27 -246.83,120.16 -299.94,142.08 -235.9,97.35 -586.33,195.28 -843.65,253.26 -45.25,10.2 -137.87,35.5 -179.37,37.77z"/>
   <path class="fil9" d="M6002.93 8392.95c-37.25,67.46 -45.34,102.94 -96.94,161.02 -41.29,46.48 -83.78,85.52 -148.45,113.45 45.53,1.91 189.9,-37.04 237.43,-46.8 84.66,-17.38 159.1,-34.01 242.54,-52.44 157.05,-34.7 327.44,-72.8 477.87,-110.01 -16.52,-28.2 -32.84,-42.01 -51.88,-68.4 -21.48,-29.77 -26.95,-31.44 -57.85,-55.5 -26.36,-20.51 -38.01,-30.89 -65.2,-49.21 -24.01,-16.18 -40.76,-35.9 -66.6,-48.08 -29,24.54 -391.49,124.53 -470.9,155.96z"/>
   <path class="fil19" d="M7816 8085.31l0 0zm-99.44 413.74c116.67,8.43 93.28,-60.08 156.87,-78.98 23.43,-6.97 77.46,-2.63 96.35,-3.79 17.8,-1.09 41.95,-5.67 55.81,-21.98 38.37,-45.16 -81.22,-72.64 79.6,-218.8 69.07,-62.77 85.75,-94.82 -16.94,-152.92 -125.68,-71.1 -240.18,4.42 -322.33,78.05 -64.25,57.59 -164.15,245.78 -139.38,320.82 10.7,32.4 49.91,74.7 90.02,77.6z"/>
   <path class="fil10" d="M6054.61 9564.77c-43.58,37.97 -45.37,30.02 -86.41,61.19l-31.24 20.85c-1.3,0.8 -3.23,1.91 -4.52,2.71l-568.01 287.01c-57.11,26.98 -90,26.39 -105.08,54.9 57.1,27.74 224,51.94 296.14,57.72 -60.47,-14.52 -23.15,-5.85 -39.2,-26.13 62.29,-22.91 113.68,-52.09 174.2,-76.9l81.99 -34.91c1.51,-0.74 3.57,-1.59 5.07,-2.35l81.43 -43.52c64.41,-25.54 86.02,-48.84 126.48,-65.16l202 -109.01c-23.63,-71.98 83.39,-102.01 85.92,-204.71 -26.07,-21.87 -54.49,-56.95 -111.11,-2.5 -20.8,20 -9.01,2.28 -23.14,29.91 44.63,-10.46 24.06,-16.06 46.5,-28.65 33.06,-18.56 71.02,-6.87 40.07,24.9 -3.28,3.37 -2.02,0.82 -8.37,5.57 -48.69,36.39 -79.66,79.41 -162.72,49.07z"/>
   <path class="fil20" d="M7980.52 7061.71c13.25,-9.38 19.93,-12.62 37.32,-18.22 1.56,-1.13 3.86,-2.35 4.94,-2.99 58.06,-34.13 109.19,-50.52 171.1,-31.3 21.44,135.59 -55.86,163.98 -109.21,256.06l-32.13 60.47c-33.61,36.61 -61.83,-1.95 -118.8,-21.05 -45.75,-15.33 -73.46,-14.02 -73.54,-70.75 -0.06,-46.4 21.94,-79.79 42.65,-105.59 27.83,-34.67 44.52,-61.17 77.67,-66.64zm282.84 -110.48l-141.09 1.76c-47.42,4.22 -81.52,22.86 -113.13,45.83 -7.07,5.14 -14.87,11.38 -21,16.57l-61.22 59.7c-29.18,29.6 -60.69,51.49 -83.19,91.62 -31.75,56.64 -60.51,285.37 -12.41,332.58 49.69,48.77 111.28,12.51 147.19,-7.35 49.67,-27.47 132.81,103.05 197.91,-33 35.52,-74.22 -27.62,-150.65 79.98,-144.16 44.34,2.68 76.39,-20.34 70.83,-67.39 -6.56,-55.39 -52.61,-66.33 -45.11,-107.26 7.38,-40.3 45.78,-60.82 58.14,-109.82 6.65,-26.35 3.84,-70.5 -38.32,-81.89 -27.01,-7.29 -38.52,2.79 -38.58,2.8z"/>
   <path class="fil18" d="M7297.03 6889.52l27.96 -138.03c-57.61,-26.95 -94.5,19.94 -141.63,41.85 -67,31.13 -122.94,-1.15 -132.25,-62.84l11.04 -4.16c50.3,-26.69 0.46,-23.45 60.26,-60.08 29.08,-17.81 65.35,-34.11 64.96,-74.04 -39.11,40.94 -39.27,49.15 -103.72,63.91 31,-28.07 42.93,-17.66 72.08,-57.69 -117.54,-165.43 88.77,-190.96 144.11,-207.49 53.74,-16.05 59.31,-30.93 93.19,-58l-38.7 -2.43c-8.9,1.88 -31.18,8.87 -39.92,11.74 -92.64,30.33 -140.31,59.45 -221.05,110.55 -121.24,76.73 -288.48,218.99 -302.72,372.92 -6.48,70.05 64.6,88.03 122.08,102.2 163.64,40.33 285.39,-23.34 384.3,-38.38z"/>
   <path class="fil17" d="M4577.87 9625.22l27.88 40.18c75.23,56.74 131.94,119.14 231.02,171.84 73.21,38.94 201.53,107.89 293.28,121.66 -10.89,-20.06 2,-15.51 65.38,-45.52 35.02,-16.59 55.93,-26.98 88.88,-43.78 39.79,-20.29 137.58,-66.57 162.57,-103.84 -94.41,9.67 -157.38,130.81 -287.84,86.08 -40.78,-13.98 -87.48,-62.99 -99.61,-101.95 -21.62,-69.49 19.31,-104.92 37.96,-159.37 -109.84,-13.38 -137.99,3.82 -181.72,-78.17 -165.35,26 -239.07,80.59 -337.8,112.86z"/>
   <path class="fil18" d="M5959.39 9276.72c-23.56,71.71 -68.37,98.96 -100.4,158.38 -58.27,108.11 -55.56,218.96 -211.07,308.63 -97.4,56.16 -113.76,8.89 -201.02,22.03 -24.98,37.28 -122.78,83.56 -162.57,103.84 -32.95,16.8 -53.86,27.19 -88.88,43.78 -63.38,30.02 -76.28,25.46 -65.38,45.52l129.29 32.53c15.09,-28.51 47.97,-27.92 105.08,-54.9l568.01 -287.01c1.3,-0.8 3.22,-1.92 4.52,-2.71l31.24 -20.85c41.04,-31.17 42.83,-23.22 86.41,-61.19 -22.13,-34.35 -50.37,-35.85 -34.72,-82.43 9.12,-27.17 39.25,-52.54 61.39,-66.67 55.9,-35.68 110.81,-42.74 118.68,-126.63l-240.56 -12.32z"/>
   <path class="fil17" d="M6730.85 6676.75c-19.08,26.26 -14.95,41.69 -42.38,73.41 -20.72,23.96 -39.1,34.59 -57.45,59.18 -4.37,22.56 -27.3,57.02 -35.64,78.19 -12.95,32.87 -21.05,58.41 -24.32,97.69 133.65,63.94 232.49,78.9 395.28,54.36 95.82,-14.44 285.36,-65.47 349.71,-106.09l-19.02 -43.96c-98.91,15.04 -220.66,78.71 -384.3,38.38 -57.48,-14.17 -128.56,-32.15 -122.08,-102.2 14.23,-153.93 181.48,-296.19 302.72,-372.92 80.74,-51.1 128.41,-80.22 221.05,-110.55 8.74,-2.86 31.02,-9.86 39.92,-11.74l38.7 2.43 38.8 -46.74c-228.68,38.54 -312.42,109.44 -472.09,215.49 -56.4,37.46 -186.67,141.01 -220.76,196.6 -10.43,-14.1 -12.12,17.46 -8.14,-21.53z"/>
   <path class="fil21" d="M5370.6 9218.39c46.99,-28.56 46.5,-14.6 89.95,-29.5l39.12 -14.74c6.16,-1.43 28.22,-6.09 36.06,-7.17 37.08,-5.1 59.93,-3.65 79.76,18.01 51.72,130.78 -170.18,241.57 -247.48,267.81 -185.22,62.87 -149.56,-159.55 2.59,-234.41zm357.52 87.91c44.87,-89.93 -47.19,-142.93 -105.65,-170.35 -114.92,-53.93 -221.35,29.35 -303.78,97.48 -33.2,27.44 -45.49,29.85 -77.52,64.51 -48.92,52.95 -90.09,101.91 -90.32,194.79 -0.2,79.91 17.31,206.96 117.86,137.96 42.24,-28.97 59.57,-33.68 96.5,2.08 35.25,34.15 68.8,28.09 90.45,-12.94 50.15,-95.02 86.83,-68.48 152.37,-141.02 41.17,-45.57 90.1,-112.41 120.09,-172.5z"/>
   <path class="fil22" d="M5899.48 7378.97c-8.53,17.39 -49.59,61 -87.45,123.3l-39.62 57.89c-21.57,24.36 -23.75,36.87 -38.46,56.23 1.63,1.91 9.31,-0.52 17.65,3.59l19.93 16.8c9.83,-16.46 29.94,-40.22 42.43,-59.02 15.32,-23.07 32.51,-33.57 47.39,-59.58 23.56,7.85 10.19,1.69 30.89,15.32 32.55,15.15 482.52,370.79 561.57,432.43l557.49 425.81c33.9,26.53 135.56,114.23 166.27,110.71 19.64,-51.81 -13.44,-1.76 3.06,-47.73l7.32 -2.85 -20.45 -20c-9.14,-7.81 -13.46,-10.49 -21.39,-16.7 -355.99,-278.81 -707.54,-563.02 -1078.06,-826.46 -55.68,-39.59 -105.2,-80.44 -164.16,-118.02l34.63 -54.76 -3.3 -21.74c-25.1,-6.51 -14.63,-6.57 -33.57,-14.81l-2.17 -0.42z"/>
   <path class="fil23" d="M6745.3 8998.86c58.88,-8.41 123.2,18.11 168.35,39.77 57.38,27.53 93.11,49.72 62.26,125.4 -42.57,104.39 -113.84,166.76 -219.87,193.34 -51.64,12.95 -254.59,41.99 -173.06,-70.58 57.17,-78.93 -24.03,-60.8 -9.52,-145.4 12.63,-73.63 86.35,-130.31 171.83,-142.52zm-115.6 482.94c36.54,-23.7 -30.78,24.73 12.35,-11.33 1.64,-1.37 6.43,-5.72 8.28,-6.96l179.54 -37.12c136.69,-29.54 228.23,-134.09 211.36,-272.05 -22.82,-186.59 -384.68,-254.93 -489.34,-81.34 -45.92,76.17 28.14,136.72 -29.75,184.79 -37.49,31.13 -123.15,35.69 -129.72,126.67 -11.13,154.09 80,117.31 173.33,94.43 79.06,-19.37 60.64,-6.98 63.95,2.92z"/>
   <path class="fil10" d="M7147.48 8751.78c13.96,20.49 20.06,36.2 30.98,51.38 11.1,15.43 25.51,27.11 35.89,39.27 61.24,71.74 52.65,78.84 90.24,126.09 13.07,16.43 21.48,20 35.76,39.35 17.44,23.63 58.36,92.05 89.53,126.54l65.08 84.78c40.75,50.43 118.97,177.31 148.76,200.2 21.45,-7.45 173.81,-134.69 196,-156.85 -20.3,-27.96 -150.85,-108.71 -194.62,-145.1 -78.91,-65.59 -177.8,-126.34 -238.78,-173.54 -48.49,-37.54 -225.58,-180.57 -258.84,-192.13z"/>
   <path class="fil7" d="M5452.97 6818.87c28.27,20.97 39.41,44.81 70.11,66.51 35.51,25.1 52.39,36.85 79.52,62.11 24.89,-3.16 38.2,-23.45 62.69,-35.1 10.27,-22.31 18.14,-16.44 36.65,-37.44 -16.04,-16.31 5.43,-3.08 -17.9,-12.03l-91.63 53.77c-4.5,-22.6 -1.57,-11.71 -11.73,-28.23l26.09 -20.87c1.02,-1.08 2.42,-2.85 3.43,-4 38.32,-43.24 10.65,-14.45 51.29,-38.24 -3.15,-33.88 -12.29,-61.46 -24.26,-88.33 -13.02,-29.21 -28.31,-45.91 -37.13,-65.26 -19.41,-21.82 -32.69,-40.98 -55.26,-65.7 -45.98,-50.4 -195.04,-173.39 -261.74,-244.95 -38.68,-41.5 -15.24,-29.7 -54.97,-50.54 -10.2,-5.35 -97.08,-123.96 -101.04,-137.04l144.45 330.84c55.35,147.83 101.46,214.94 181.43,314.51z"/>
   <path class="fil17" d="M5699.89 9087.56l8.93 44.2c85.63,21.71 129.49,-15.85 187.22,-0.81 46.07,12 68.52,85.46 63.36,145.78l240.56 12.32c-13.94,-52.17 -71.34,-63.42 -40.74,-136.69 16.88,-40.41 74.44,-59.31 132.69,-63.03 172.81,-11.06 130.19,10.32 261.22,-132.76 -146.69,17.99 -284.39,37.59 -432.6,59.23 -69.7,10.17 -137.39,22.16 -210.42,33.37 -70.83,10.87 -139.75,30.04 -210.21,38.39z"/>
   <path class="fil16" d="M8520.46 7277.57c74.94,78.65 -67.5,210.06 -146.81,177 -10.22,-4.26 -56.46,-58.8 -96.34,38.34 -28.2,68.7 3.3,93.35 -64.78,129.92 41.12,-6.62 584.63,-344.96 665.8,-407.93 1.78,-1.38 6.96,-5.48 8.64,-6.91 9.19,-7.8 5.02,-3.17 12.88,-11.98 -1.63,-45.23 -44.02,-230.05 -58.01,-260.66l-299.99 313.08c-19.81,20.13 -9.03,2.78 -21.4,29.14z"/>
   <path class="fil24" d="M5356.78 8678.11c-19.17,-107.96 -21,-157.5 24.49,-258.87 31.17,-69.46 94.75,-139.15 142.12,-177.42 107,-86.44 286.8,-173.74 465.68,-85.16 0.65,-1.03 1.11,-4.34 1.02,-3.52 -0.09,0.84 0.72,-3.07 0.67,-3.63 -4.07,-43.3 -67.98,-94.25 -112.59,-108.35l-11.1 -3.82c-302.41,-103.86 -683.51,252.59 -584.94,541.34 15.89,46.55 40.53,73.98 74.65,99.43z"/>
   <path class="fil25" d="M5078.83 7083.22c10.73,33.45 121.79,120.95 149.3,134.17 0.06,-0.04 405.34,307.56 417.65,328.75 33.3,-20.59 28.88,-11.21 48.8,-50.63 15.17,-30.04 23.15,-32.83 37.98,-55.19 -0.85,-1.22 -1.95,-3.21 -2.36,-3.78l-63.07 -52.79c-0.84,-0.47 -2.87,-1.31 -3.68,-1.78l-353.07 -277.54c-27.23,-21.13 -51.2,-39.73 -77.18,-59.9 -36.69,-28.49 -62.03,-41.54 -71.13,-57.82l-23.71 31.31c-11,17.26 -41.74,60.53 -59.54,65.21z"/>
   <path class="fil18" d="M6705.35 9027.98c104.1,-23.27 131.66,102.65 13.73,132.35 -100.71,25.36 -150.85,-101.71 -13.73,-132.35zm39.96 -29.13c-85.48,12.21 -159.19,68.89 -171.83,142.52 -14.52,84.6 66.69,66.47 9.52,145.4 -81.54,112.57 121.41,83.53 173.06,70.58 106.02,-26.58 177.3,-88.95 219.87,-193.34 30.86,-75.67 -4.87,-97.87 -62.26,-125.4 -45.15,-21.66 -109.48,-48.18 -168.35,-39.77z"/>
   <path class="fil8" d="M5812.39 7322.56l31.13 22.54c-12.96,20.07 -0.34,2.37 -12.36,15.25 -7.34,7.87 -7.8,7.37 -16.15,15.56 -6.85,6.72 -20.68,21.64 -28.26,32.68 -17.11,24.94 -26.59,49.62 -38.15,74.4 17.35,3.09 19.17,20.61 72.61,-36.49 27.21,-29.07 23.45,-58.06 53.02,-80.25l25.25 12.72 2.17 0.42c-27.29,-39.78 -47.39,-67.94 -75.98,-108.56 -38.04,-54.05 -205.88,-281.24 -223.07,-323.36 -27.13,-25.26 -44.01,-37.01 -79.52,-62.11 -30.71,-21.7 -41.85,-45.54 -70.11,-66.51 -19.83,43.61 -95.37,101.68 -117.59,158.34l159.47 109.02c10.54,7.31 10.26,7.18 18.34,12.77 42.53,29.44 80.2,48.73 110.61,79.22l24.8 21.57c23.09,17.14 40.09,29.5 62.03,44.84 23.54,16.46 42.63,26.43 65.21,42.33 47.1,33.16 52.12,24.09 36.54,35.59z"/>
   <path class="fil26" d="M7762.83 6290.34c16.99,32.74 51.62,58.54 -0.62,98 -75.66,57.15 -207.08,-13.98 -148.63,-82.25 31.85,-37.2 67.71,-23.49 85.19,-31.03 -33.55,-39.81 -109.9,19.06 -125.6,33.1 -50.01,44.69 -31.22,62.95 -112.48,130.19 -6.58,5.44 -17.52,15.4 -27.21,25.4 -111.85,115.35 15,225.21 344.11,23.84 140.05,-85.7 95.57,-164.73 -14.74,-197.26z"/>
   <path class="fil17" d="M6011.98 8178.9c1.01,35.28 11.83,58.61 11.26,105.73 -0.5,40.58 -10.36,68.05 -20.31,108.32 79.41,-31.43 441.9,-131.43 470.9,-155.96 -11.83,-15.3 -71.83,-59.41 -87.77,-71.44 -23.53,-17.78 -71.19,-52.33 -86.24,-70.72 -12.5,12.57 1.91,3.6 -20.06,12.96 -34.83,14.85 -247.53,44.42 -267.79,71.11z"/>
   <path class="fil14" d="M4592.88 6605.35c19.82,74.91 -30.54,52.63 -45.78,19.71 -16.98,-36.69 -7.72,-65.78 -35.59,-103.2 -48.55,-65.21 -84.46,-75.89 -118.43,-167 21.63,11.64 26.87,19.08 48.5,31.09 52.04,28.89 100.16,38.09 150.65,59.65 55.3,23.61 139.19,76.81 137.93,139.48 -44.69,12.22 -39.47,-16.8 -88.46,-29.02 -12.59,22.64 -4.41,23.93 -15.44,48.63l-33.39 0.66zm17.25 152.32c8.68,-39.09 -0.5,-52.22 8.55,-89.96 144.93,-61.25 75.7,124.49 207.23,44.29 18.45,-83.18 -60.4,-143.36 -90.76,-188.67l-186.78 -132.17c-37.28,-24.98 -175.87,-99.66 -223.09,-103.17 5.13,106.05 79.81,179.57 129.88,247.2 21.55,29.11 55.08,82.43 66.89,125.16 11.09,40.13 27.64,133.39 88.07,97.32z"/>
   <path class="fil10" d="M7146.07 8338.83c50.74,45.93 109.55,90.28 167.93,135.91 36.75,28.72 52.64,39.14 83.98,67.46 21.28,19.22 57.62,50.93 82.2,63.95 11.89,-39.6 36.52,-82.73 41.27,-113.63 -11.6,-13.69 -92.28,-47.7 -73.25,-148.05 13.35,-70.41 68.91,-89.98 98.22,-133.99 -48.88,5.07 -143.01,46.44 -197.08,65.38 -53.11,18.61 -148.18,51.63 -203.27,62.97z"/>
   <path class="fil16" d="M8213.98 8345.24c-8.66,14.18 -17.82,148.78 -19.83,179.58 6.62,16.45 -12.8,8.02 61.98,-44.59l236.7 -165.61c125.56,-88.54 250.57,-135.54 274.33,-267.83 -64.95,40.04 -504.78,298.56 -553.18,298.46z"/>
   <path class="fil17" d="M7888.89 8941.97l135.65 113.55c2.91,-15.85 -2.91,-9.73 27.56,-30.03 54.35,-36.21 158.14,-162.49 195.35,-206.29l204.18 -258.63 -493.37 339.74c-20.39,13.1 -45.72,38.39 -69.37,41.66z"/>
   <path class="fil17" d="M8372.91 6833.48l59.84 2.99c22.25,1.73 16.44,-2.2 32.92,7 27.06,15.12 26.93,47.06 7.77,73.48 -53.09,73.23 -107.36,81.7 -32.41,117.6 16.79,-41.74 61.58,-54.26 72.03,-100.3 19.68,-86.75 -55.36,3.91 100.64,-179.09l70.81 -88.26c16.16,-22.16 12.2,-20.35 33.69,-29.6 -8.03,-23.1 -20.27,-33.75 -29.83,-59.31 -11.09,-24.29 -31.3,-45.41 -50.48,-62.01 -31.02,16.31 -102.96,123.23 -129.47,157.58 -44.64,57.84 -88.8,105.48 -135.51,159.91z"/>
   <path class="fil27" d="M5460.55 9188.88c29.82,14.41 59.84,11.48 70.53,47.99 9.7,33.15 -13.74,51.93 -32.19,66.63 -46.42,36.98 -106.46,33.73 -145.4,-9.15 -3.41,-37.74 9.33,-50.51 17.11,-75.96 -152.15,74.86 -187.81,297.28 -2.59,234.41 77.31,-26.24 299.21,-137.04 247.48,-267.81 -19.83,-21.66 -42.68,-23.11 -79.76,-18.01 -7.85,1.08 -29.9,5.74 -36.06,7.17l-39.12 14.74z"/>
   <path class="fil28" d="M8017.84 7043.49c57.8,-0.94 95.13,5.11 99.43,50.17 5.75,60.29 -120.73,128.33 -170.31,64.64 -28.63,-36.78 12.37,-74.18 33.56,-96.59 -33.15,5.47 -49.83,31.96 -77.67,66.64 -20.71,25.8 -42.71,59.19 -42.65,105.59 0.08,56.73 27.79,55.42 73.54,70.75 56.97,19.09 85.19,57.65 118.8,21.05l32.13 -60.47c53.35,-92.09 130.65,-120.47 109.21,-256.06 -61.91,-19.22 -113.04,-2.83 -171.1,31.3 -1.08,0.63 -3.38,1.86 -4.94,2.99z"/>
   <path class="fil25" d="M5602.61 6947.48c17.19,42.11 185.03,269.31 223.07,323.36 28.59,40.62 48.69,68.77 75.98,108.56 18.94,8.23 8.48,8.3 33.57,14.81l3.3 21.74c37.03,0.47 14.03,5.78 57.78,34.23 1.95,-0.46 4.87,-3.77 5.62,-2.17l49.12 -26.99 -106.58 -126.34c-11.29,-14.89 -10.12,-16.68 -20.78,-31.31 -9.91,-13.6 -17.39,-19.41 -27.41,-32.55l-69.01 -95.15c-9.91,-13.61 -17.4,-19.42 -27.41,-32.55 -11.39,-14.94 -10.07,-16.58 -20.8,-31.3 -19.15,-26.28 -117.9,-133.18 -113.75,-159.43 -24.49,11.65 -37.8,31.94 -62.69,35.1z"/>
   <path class="fil8" d="M5878.18 8041.16c44.61,14.11 108.52,65.05 112.59,108.35 0.05,0.56 -0.77,4.47 -0.67,3.63 0.09,-0.83 -0.37,2.48 -1.02,3.52 1.38,1.23 3.67,1.3 4.12,3.71 0.61,3.27 6.49,6.37 7.74,7.59 0.03,0.04 10.55,10.39 11.04,10.93 20.26,-26.69 232.96,-56.26 267.79,-71.11 21.96,-9.37 7.56,-0.39 20.06,-12.96 -52.64,-29.49 -105.95,-82.62 -159.16,-118.26l-234.99 48.46c-40.46,11.82 -15.51,-4.69 -27.49,16.13z"/>
   <path class="fil22" d="M5665.29 6912.38c-4.15,26.25 94.59,133.15 113.75,159.43 10.73,14.72 9.41,16.36 20.8,31.3 10.02,13.13 17.5,18.94 27.41,32.55l69.01 95.15c10.02,13.13 17.5,18.94 27.41,32.55 10.67,14.63 9.5,16.43 20.78,31.31l106.58 126.34c21.29,-17.95 26.78,-22.56 44.71,-39.52 -0.7,-18.91 -83.35,-113.2 -102.36,-136.07 -17.66,-21.23 -19.67,-30.57 -37.88,-51.99l-110.17 -137.02c-7.44,-9.09 -15.67,-16.19 -21.69,-23.41l-14.04 -27.42c-20.61,-24.32 -98.06,-108.46 -107.67,-130.65 -18.51,21 -26.38,15.13 -36.65,37.44z"/>
   <path class="fil29" d="M4322.05 6360.4c-30.62,21.1 -8.16,88.4 -94.37,189.38 -20.41,23.9 -45.34,50.57 -52.77,93.99 -32.94,192.52 136.67,136.95 154.87,-18.77 12.07,-103.31 -10.72,-169.73 -7.72,-264.6z"/>
   <path class="fil30" d="M6295.64 6564.19c-99.15,4.4 -109.86,19.57 -163.5,70.96 -42.79,41 -67.85,140.87 24.5,134.33 97,-6.86 307.78,-212.78 138.99,-205.29z"/>
   <path class="fil31" d="M4592.88 6605.35l33.39 -0.66c11.04,-24.71 2.86,-25.99 15.44,-48.63 48.98,12.22 43.77,41.24 88.46,29.02 1.26,-62.67 -82.63,-115.87 -137.93,-139.48 -50.49,-21.56 -98.62,-30.76 -150.65,-59.65 -21.63,-12.01 -26.88,-19.45 -48.5,-31.09 33.97,91.11 69.88,101.78 118.43,167 27.87,37.43 18.61,66.51 35.59,103.2 15.24,32.92 65.59,55.2 45.78,-19.71z"/>
   <path class="fil32" d="M7762.83 6290.34c-26.37,-10.41 -31.54,-14.25 -64.07,-15.27 -17.48,7.54 -53.34,-6.17 -85.19,31.03 -58.44,68.26 72.97,139.4 148.63,82.25 52.24,-39.46 17.61,-65.26 0.62,-98z"/>
   <path class="fil32" d="M7980.52 7061.71c-21.19,22.41 -62.19,59.81 -33.56,96.59 49.58,63.69 176.06,-4.35 170.31,-64.64 -4.3,-45.06 -41.64,-51.11 -99.43,-50.17 -17.39,5.6 -24.07,8.84 -37.32,18.22z"/>
   <path class="fil32" d="M5370.6 9218.39c-7.78,25.45 -20.52,38.22 -17.11,75.96 38.94,42.88 98.98,46.13 145.4,9.15 18.44,-14.69 41.89,-33.48 32.19,-66.63 -10.69,-36.51 -40.71,-33.58 -70.53,-47.99 -43.44,14.9 -42.96,0.94 -89.95,29.5z"/>
   <path class="fil32" d="M6705.35 9027.98c-137.12,30.64 -86.98,157.71 13.73,132.35 117.93,-29.7 90.37,-155.62 -13.73,-132.35z"/>
   <path class="fil22" d="M6378.4 9232.52l5.02 -50.8c-43.46,-23.97 -121.74,-28.21 -132.63,29.33 -12.3,65.01 93.07,45.65 127.62,21.46z"/>
   <path class="fil33" d="M7816 8085.31l0 0zm0 0l0 0z"/>
   <line class="fil32" x1="7816" y1="8085.31" x2="7816" y2= "8085.31" />
  </g>
 </g>
</svg>
